<svg xmlns="http://www.w3.org/2000/svg" xmlns:xlink="http://www.w3.org/1999/xlink" id="grm" version="1.1" height="675" width="1000" preserveAspectRatio="xMidYMid meet">
  <metadata xmlns:cc="http://creativecommons.org/ns#" xmlns:rdf="http://www.w3.org/1999/02/22-rdf-syntax-ns#">
    <rdf:RDF>
      <cc:Work rdf:about="">
        <cc:license rdf:resource="http://creativecommons.org/licenses/by-sa/4.0/" />
        <cc:license rdf:resource="http://opendatacommons.org/licenses/odbl/1.0/" />
        <cc:attributionName rdf:resource="Gregory Dosh" />
        <cc:attributionURL rdf:resource="https://github.com/GregoryDosh" />
      </cc:Work>
      <cc:License rdf:about="http://creativecommons.org/licenses/by-sa/4.0/">
        <cc:permits rdf:resource="http://creativecommons.org/ns#Reproduction" />
        <cc:permits rdf:resource="http://creativecommons.org/ns#Distribution" />
        <cc:permits rdf:resource="http://creativecommons.org/ns#DerivativeWorks" />
        <cc:requires rdf:resource="http://creativecommons.org/ns#Notice" />
        <cc:requires rdf:resource="http://creativecommons.org/ns#Attribution" />
        <cc:requires rdf:resource="http://creativecommons.org/ns#ShareAlike" />
      </cc:License>
    </rdf:RDF>
  </metadata>
  <!-- Crown Defs -->
  <defs>
    <!-- Crown Background -->
    <symbol id="crown-background-half">
      <path d="M0 100 l 83 140 l 83 -105 l 83 105 l 83 -105 l 83 105 l 85 -240 L 500 300 L 0 300" />
    </symbol>
    <symbol id="crown-background">
      <use xlink:href="#crown-background-half" style="fill:#ff9910" />
      <use xlink:href="#crown-background-half" transform="translate(1000 0) scale(-1,1)" style="fill:#ff9910" />
    </symbol>
    <!-- Crown Foreground -->
    <symbol id="crown-foreground-half">
      <path d="M0 100 l 83 200 l 83 -165 l 83 165 l 83 -165 l 83 165 l 85 -300 L 500 649 L 0 649" />
    </symbol>
    <symbol id="crown-foreground">
      <use xlink:href="#crown-foreground-half" style="fill:#ef8810" />
      <use xlink:href="#crown-foreground-half" transform="translate(1000 0) scale(-1,1)" style="fill:#ed6e10" />
    </symbol>
    <!-- Crown Bottom Shadow -->
    <clipPath id="cut-left" clipPathUnits="objectBoundingBox">
      <rect x="0" y="0" width=".5" height="1" transform="translate(.5 0)" />
    </clipPath>
    <symbol id="crown-bottom">
      <ellipse cx="0" cy="650" rx="500" ry="25" transform="translate(500 0)" style="fill:#683c00;stroke:#683c00;stroke-width:1" />
      <ellipse cx="0" cy="650" rx="500" ry="25" transform="translate(500 0)" style="fill:#4c2a00;stroke:#4c2a00;stroke-width:1" clip-path="url(#cut-left)" />
    </symbol>
    <!-- Emerald -->
    <clipPath id="emerald-cut-bottom" clipPathUnits="objectBoundingBox">
      <rect x="0" y="0" width="1" height=".5" transform="translate(0 .5)" />
    </clipPath>
    <symbol id="crown-emerald" viewBox="-.5 -.5 1 1" preserveAspectRatio="xMidYMid meet">
      <g transform="rotate(-35)">
        <circle cx="0" cy="0" r=".5" style="fill:#339900;" />
        <circle cx="0" cy="0" r=".5" style="fill:#336600;" clip-path="url(#emerald-cut-bottom)" />
      </g>
    </symbol>
    <!-- Ruby -->
    <symbol id="crown-ruby" viewBox="0 0 100 150" preserveAspectRatio="xMidYMid meet">
      <rect rx="35" ry="35.959" height="150" width="100" fill="#a90000" />
      <path d="M49.489 2.816C43.26 6.588 36.965 10.25 30.807 14.134c-.813.649-.24 1.745.597 2.021 5.978 3.462 12.072 6.718 18.114 10.066 1.139.361 2.04-.772 3.045-1.139 5.59-3.103 11.253-6.086 16.747-9.351.73-.673.134-1.7-.662-1.979-6.01-3.701-12.084-7.295-18.13-10.936-.359-.113-.68-.194-1.03 0zM15.883 28.807c-1.238.301-1.046 1.857-1.48 2.795-3.972 14.307-7.92 28.621-11.691 42.982-.098 1.358.616 2.655.85 3.984 3.758 13.985 7.47 27.983 11.33 41.938.359 1.082 1.977.888 2.23-.173 2.068-7.163 3.922-14.393 5.898-21.584 2.109-7.837 4.239-15.668 6.317-23.514-.178-1.827-.911-3.578-1.305-5.375-3.602-13.332-7.148-26.68-10.836-39.987-.19-.578-.638-1.129-1.313-1.066zM83.64 28.732c-.99.58-.839 1.934-1.262 2.876-3.96 14.333-7.914 28.669-11.673 43.055.047 1.508.72 2.952 1.012 4.432 3.707 13.853 7.366 27.721 11.208 41.536.337 1.064 2.009.909 2.125-.202 4.233-15.022 8.223-30.113 12.328-45.17-.195-1.901-.954-3.726-1.374-5.596-3.666-13.408-7.186-26.857-11.027-40.215-.153-.576-.781-.862-1.336-.716zM49.52 123.775c-6.24 3.487-12.588 6.79-18.719 10.463-.818.632-.218 1.751.602 2.035 5.984 3.717 12.054 7.292 18.086 10.93 1.132.43 2.006-.773 2.978-1.17 5.626-3.416 11.335-6.707 16.884-10.245.684-.707.09-1.668-.703-1.934-6.004-3.451-12.107-6.725-18.165-10.079-.337-.072-.64-.186-.964 0z" fill="#ea0000" />
      <path d="M69.983 122.697c-.818.857-.271 2.172-.43 3.236.029 2.884-.057 5.785.043 8.658.27 1.29 1.863.756 2.804.864 3.736-.028 7.49.057 11.215-.042 1.29-.27.756-1.863.864-2.804-.029-3.073.057-6.164-.042-9.226-.271-1.29-1.864-.757-2.804-.865-3.737.029-7.49-.057-11.216.043l-.434.136z" fill="#ff2e2e" />
      <path d="M57.729 122.52c-2.38.064-4.785-.1-7.151.178-1.01.289-.865 1.752.064 2.046 6.029 3.488 12.164 6.788 18.26 10.156.919.442 1.69-.552 1.495-1.42.005-3.364.07-6.744-.023-10.097-.27-1.29-1.863-.757-2.804-.865-3.28 0-6.56-.002-9.841.002z" fill="#ff2e2e" />
      <path d="M29.926 122.697c-.817.857-.271 2.172-.43 3.236.029 2.744-.057 5.505.043 8.238.142 1.057 1.446.968 2.086.407A2419.74 2419.74 0 0 0 50.03 124.44c.89-.555.348-1.99-.671-1.87-6.287-.089-12.575-.037-18.862-.052l-.57.179z" fill="#ff2e2e" />
      <path d="M16.005 122.697c-.817.857-.27 2.172-.43 3.236.03 2.884-.056 5.785.043 8.658.271 1.29 1.864.756 2.804.864 3.72-.028 7.456.057 11.164-.042 1.291-.271.756-1.864.864-2.805-.03-3.073.054-6.164-.047-9.226-.272-1.29-1.863-.756-2.804-.864-3.717.029-7.452-.057-11.159.043l-.435.136z" fill="#ff2e2e" />
      <path d="M28.996 75.592c-.986.56-.867 1.89-1.278 2.823-4.094 14.533-7.941 29.135-11.941 43.694-.228 1.067.973 1.445 1.814 1.273 4.014-.029 8.044.056 12.046-.043 1.29-.27.757-1.863.865-2.804-.038-14.38.508-31.81.328-46.189.06-.907-.624.966-1.834 1.246zM70.361 74c-1.083.592-.586 3.75-.741 4.745-.123 14.545-.043 29.091-.067 43.637.137 1.299 1.645.977 2.563 1 3.758-.04 7.528.093 11.28-.124 1.101-.308.758-1.579.483-2.37-3.991-14.85-8.014-29.693-12.197-44.49-.19-.528-.784-2.567-1.32-2.398z" fill="#ff2e2e" />
      <path d="M69.983 26.674c-.818.857-.271 2.172-.43 3.236.037 14.242-.087 28.485.1 42.726-.093.787.277 3.498 1.244 3.364 1.148-.404.965-3.542 1.394-4.476 4.022-14.507 8.034-29.017 11.867-43.574.243-1.034-.908-1.503-1.75-1.4a313.23 313.23 0 0 0-11.99-.012z" fill="#ff2e2e" />
      <path d="M69.983 14.742c-.818.858-.271 2.172-.43 3.236.029 2.884-.057 5.786.043 8.659.27 1.29 1.863.756 2.804.864 3.736-.029 7.49.057 11.215-.042 1.29-.271.756-1.864.864-2.805-.029-3.073.057-6.164-.042-9.226-.271-1.29-1.864-.756-2.804-.864-3.737.028-7.49-.057-11.216.042l-.434.136z" fill="#ff2e2e" />
      <path d="M68.95 15.1c-6.267 3.38-12.505 6.824-18.666 10.397-.863.586-.29 1.945.691 1.894 6.143.218 12.295.06 18.442.11 1.299-.137.977-1.645 1-2.562-.03-3.028.057-6.074-.043-9.09-.066-.68-.834-1.018-1.423-.75z" fill="#ff2e2e" />
      <path d="M29.86 15.272c-.627.913-.215 2.134-.354 3.176.009 2.728-.062 5.472.033 8.189.27 1.29 1.863.756 2.804.864 5.766-.046 11.542.107 17.303-.135 1.005-.214 1.016-1.69.06-1.996-6.223-3.458-12.454-6.905-18.721-10.283-.442-.13-.747-.076-1.125.185z" fill="#ff2e2e" />
      <path d="M16.005 14.742c-.817.858-.27 2.172-.43 3.236.03 2.884-.056 5.786.043 8.659.271 1.29 1.864.756 2.804.864 3.713-.029 7.443.057 11.144-.043 1.287-.27.762-1.858.877-2.797-.009-3.073.097-6.164.018-9.227-.264-1.296-1.863-.763-2.805-.87-3.736.028-7.49-.057-11.216.042l-.435.136z" fill="#ff2e2e" />
      <path d="M23.498 26.512c-2.288.079-4.61-.113-6.877.205-1.131.278-.824 1.55-.512 2.35C20.181 44 24.19 58.956 28.303 73.873c.405 1.086 2.644 3.842 2.503 2.68.209-13.014-.342-29.223-.304-42.24-.056-2.358.111-4.751-.085-7.089-.379-1.15-1.855-.6-2.764-.723l-4.155.011z" fill="#ff2e2e" />
      <path d="M49.98 26.499c-6.522.03-13.06-.051-19.571.05-1.29.272-.756 1.864-.864 2.805l.007 93.028c.137 1.299 1.645.977 2.563 1h37.302c1.299-.137.977-1.645 1-2.563V27.49c-.138-1.299-1.645-.976-2.563-.999L49.98 26.5z" fill="#ff5757" />
    </symbol>
    <!-- Shadows -->
    <symbol id="shadow-left" viewBox="0 0 125 375" preserveAspectRatio="xMinYMin meet">
      <path d="M0 0 h125 v300 L0 220" fill="#000" fill-opacity="0.2" />
    </symbol>
    <symbol id="shadow-middle" viewBox="0 0 175 350">
      <path d="M0,55 l175,-55 L175,350 L0,225 L0,350" fill="#000" fill-opacity="0.2" />
    </symbol>
    <symbol id="shadow-right" viewBox="0 0 125 375" preserveAspectRatio="xMinYMin meet">
      <path d="M0 0 h125 v315 L0 220" fill="#000" fill-opacity="0.2" />
    </symbol>
    <!-- Full Crown -->
    <symbol id="crown" viewBox="0 0 1000 675" preserveAspectRatio="xMidYMid meet">
      <use xlink:href="#crown-background" />
      <use xlink:href="#crown-foreground" />
      <use xlink:href="#shadow-left" width="125" height="375" x="125" y="427.5" transform="rotate(-35 187.5 427.5)" />
      <use xlink:href="#crown-emerald" width="125" height="125" x="125" y="365" />
      <use xlink:href="#shadow-middle" width="175" height="350" x="442.5" y="440" transform="rotate(-35 437.5 495)" />
      <use xlink:href="#crown-ruby" width="125" height="187.5" x="437.5" y="330" />
      <use xlink:href="#shadow-right" width="125" height="375" x="750" y="427.5" transform="rotate(-35 812.5 427.5)" />
      <use xlink:href="#crown-emerald" width="125" height="125" x="750" y="365" />
      <use xlink:href="#crown-bottom" />
    </symbol>
  </defs>
  <use xlink:href="#crown" />
</svg>
